# xmcd
#
# Track frame offsets:
# 150
# 13248
# 27677
# 41453
# 53867
# 66384
# 81616
# 97283
# 110934
# 120321
# 133432
# 145622
# 162229
# 178780
# 195799
# 205826
# 217512
# 228015
# 239871
# 253172
# 263272
# 279914
#
# Disc length: 3897 seconds
#
#
# Revision: 0
# Processed by: cddbd v1.4PL0 Copyright (c) Steve Scherf et al.
# Submitted via: FreeRIP 2.51 
#
DISCID=460f3716
DTITLE=Percy Sledge - 22 All Time Greatest Hits
DYEAR=2003
DGENRE=Soul
TTITLE0=When A Man Loves A Woman
TTITLE1=Take Time to Know Her
TTITLE2=Warm And Tender Love
TTITLE3=It Tears Me Up
TTITLE4=Cover Me
TTITLE5=Out Of Left Field
TTITLE6=Just Out Of Reach
TTITLE7=My Special Prayer
TTITLE8=If Youve Got The Money
TTITLE9=Personality
TTITLE10=He'll Have To Go
TTITLE11=Dock Of The Bay
TTITLE12=A Whiter Shade Of Pale
TTITLE13=For The Good Times
TTITLE14=Kiss An Angel Good Morning
TTITLE15=Today I Started Loving You Again
TTITLE16=Hey Good Looking
TTITLE17=Dark End Of The Street
TTITLE18=I Still Miss Someone
TTITLE19=Wabash Cannonball
TTITLE20=You Had To Be There
TTITLE21=You're All Around Me
EXTD=
EXTT0=
EXTT1=
EXTT2=
EXTT3=
EXTT4=
EXTT5=
EXTT6=
EXTT7=
EXTT8=
EXTT9=
EXTT10=
EXTT11=
EXTT12=
EXTT13=
EXTT14=
EXTT15=
EXTT16=
EXTT17=
EXTT18=
EXTT19=
EXTT20=
EXTT21=
PLAYORDER=
